<?xml version="1.0" standalone="no"?>
<!DOCTYPE svg PUBLIC "-//W3C//DTD SVG 1.1//EN" "http://www.w3.org/Graphics/SVG/1.1/DTD/svg11.dtd" >
<!--
2013-9-30: Created.
-->
<svg>
<metadata>
Created by iconfont
</metadata>
<defs>

<font id="iconfont" horiz-adv-x="1024" >
  <font-face
    font-family="iconfont"
    font-weight="500"
    font-stretch="normal"
    units-per-em="1024"
    ascent="896"
    descent="-128"
  />
    <missing-glyph />
    
    <glyph glyph-name="view" unicode="&#59347;" d="M983.63398491 536.58525932c-114.10136647 154.61072737-281.54005812 252.50834948-468.55827417 252.50834948-187.01821606 0-353.78175169-97.89762213-468.55827418-252.50834948-50.6367011-68.19075749-50.6367011-169.46415969 1e-8-237.65491716C161.29395905 144.31961478999995 328.73265069 46.42199267000001 515.07571074 46.42199267000001c187.01821606 0 353.78175169 97.89762213 468.55827417 252.50834949C1034.27068602 367.12109964 1034.27068602 468.39450183 983.63398491 536.58525932zM932.99728382 354.96829137C826.99778951 201.70787603999997 674.41253019 113.93759412999998 514.40055473 113.93759412999998c-160.01197548 0-312.59723479 87.7702819-418.59672909 241.03069724C70.14789707 390.75156015 70.14789707 444.0888853 95.80382564 480.5473101 201.80331993 633.80772543 354.38857924 721.57800733 514.40055473 721.57800733c160.01197548 0 312.59723479-87.7702819 418.59672909-241.03069723C957.97805637 444.0888853 957.97805637 390.75156015 932.99728382 354.96829137zM515.75086674 654.06240587C385.44575593 654.06240587 279.44626161 548.06291156 279.44626161 417.75780074S385.44575593 181.45319558999995 515.75086674 181.45319558999995 752.0554719 287.4526899 752.0554719 417.75780074 646.05597759 654.06240587 515.75086674 654.06240587zM515.75086674 248.96879706000004C422.57933673 248.96879706000004 346.96186308 324.58627071 346.96186308 417.75780074S422.57933673 586.54680441 515.75086674 586.54680441C608.92239678 586.54680441 684.53987042 510.92933076 684.53987042 417.75780074S608.92239678 248.96879706000004 515.75086674 248.96879706000004z"  horiz-adv-x="1024" />

    
    <glyph glyph-name="dictionary" unicode="&#58917;" d="M972.57463632 627.74630846c-7.88153438 10.97190472-19.48021926 18.9024065-33.78950689 24.61959306 0.57672384-13.16889818-0.23286648-23.97649119-2.85859275-32.63388243L764.10843907 54.44222993000005c-6.11218805-20.09502898-29.77311295-32.6208242-52.11518952-32.62082417L183.37876332 21.82140469000001c-45.82236694 0-73.00348602 13.28641925-82.49005395 40.08668189-3.68450592 10.41041478-3.56589594 18.40947025 0.57998841 24.62285762 3.88363894 5.817297 11.45178272 8.59210213 21.77949881 8.59210214l497.68357209 0c35.50662128 0 59.97931325 6.44516497 73.31469881 19.46498426 13.59872096 13.31797598 27.52824102 42.92895288 41.22816024 88.20615161l156.92773267 518.87328771c8.49416737 28.08973098 5.15351989 53.2719018-10.31248108 74.45617718-15.46708883 21.2005982-37.22700023 32.07239251-65.28408665 32.07239253L380.95357995 828.19604067c-5.15351989 0-14.88710039-1.71711438-29.21379974-5.15569662l0.57998841 1.71929113c-73.3179634 20.62278544-76.50626847-58.01627413-101.37613762-93.35858369-7.76618898-11.05569342-23.3486232-27.51409494-25.19849365-35.51097368-1.58544722-6.89022167 3.5691605-23.48029036 2.87491556-29.77746536-1.58544722-14.34302109-7.11982253-33.11376042-16.04381374-55.53636006-8.84129038-22.24087725-16.60856826-38.40221205-24.05919094-48.11620514l-12.59108541-13.16998601c-6.44407608-6.74223169-10.88811712-12.02850763-12.59108543-17.18529211-1.73561288-1.71602656-2.01744674-7.48544403-0.5789006-16.02749094 1.43745725-8.65956799 2.19916912-14.89036495 1.71929114-18.34091655-1.81722481-13.1547521-6.29391043-30.35527811-14.32669829-51.53737677-8.01320155-21.19950928-16.16133482-38.86576723-24.04069248-52.69626576-1.27423443-2.22854909-4.59420669-6.87389886-9.75099115-13.16780929-5.13828598-6.29717499-8.60951279-12.01218482-9.73249268-16.04598941-1.75193568-6.27867652 2.29819171-25.75998359 0-33.21278303-2.85859276-14.30275957-8.47566889-32.1159186-17.18311535-52.66906252-8.47784562-20.09285224-17.13850145-37.84072211-25.77848206-52.15001078-7.96532201-13.18521993-22.66961216-28.05708642-23.46396863-38.92888071-0.34603409-4.62576343 4.11432867-17.18637995 3.42008268-23.46396861L41.33921996 142.64729373c-0.92602358-8.62801128-1.71929111-13.74997443-1.71929114-15.46600099-8.59318997-22.90465434-8.1448687-46.99540201 1.1393027-72.73906281 10.75753779-29.80902208 29.82860946-54.92807945 56.71157188-75.01984385 27.52932994-20.55423176 56.11526063-30.93308978 85.33014822-30.93308981l528.61557407 0c24.62068088 0 48.00194865 8.72485714 69.88047004 25.2159043 22.22455549 16.75546932 36.61763181 36.65027637 44.10198798 61.27313399l157.48813477 518.89069836C991.24961762 581.41359572 988.17556903 606.08215508 972.57463632 627.74630846zM327.69691207 516.63876707c3.15674838 9.65196856 14.32669829 18.32459375 24.04286814 18.32459374l348.22387279 0c10.87179431 0 15.7641566-8.67262519 12.59108543-18.32459374l-12.01218483-36.64809964c-3.17307119-9.65196856-14.32669829-18.32459375-24.05919095-18.32459372L328.2594909 461.66607262c-10.87288319 0-15.7641566 8.67371408-12.59108541 18.32459376L327.69691207 516.63876707zM375.22007164 663.25510646c3.17307119 9.65196856 14.32669829 18.32459375 24.05919095 18.32459376l348.22387278 0c10.89138167 0 15.76306877-8.67371408 12.58999761-18.32459376l-12.02741876-36.64809963c-3.15566053-9.64979182-14.32778719-18.34091654-24.04395704-18.34091655L375.79897222 608.2660902800001c-10.87288319 0-15.7641566 8.69221255-12.59108542 18.34091655L375.22007164 663.25510646z"  horiz-adv-x="1024" />

    
    <glyph glyph-name="toolbar" unicode="&#58889;" d="M433.11704059 393.9492022L107.16222738 393.9492022c-38.3754943 0-69.40752871 31.03203532-69.4075287 69.40752871L37.75469868 789.3115441c0 38.3754943 31.03203532 69.40752871 69.4075287 69.40752872l325.95481227 0c38.3754943 0 69.40752871-31.03203532 69.40752871-69.40752872l0-325.95481227C502.52456928 425.21812324 471.25564824 393.9492022 433.11704059 393.9492022zM107.16222738 792.15417304c-1.65820021 0-2.84262893-1.42131446-2.84262892-2.84262894l0-325.95481227c0-1.65820021 1.42131446-2.84262893 2.84262892-2.84262892l325.95481227 0c1.65820021 0 2.84262893 1.42131446 2.84262894 2.84262892L435.95966952 789.3115441c0 1.65820021-1.42131446 2.84262893-2.84262893 2.84262894L107.16222738 792.15417304zM433.11704059-88.58710112000006L107.16222738-88.58710112000006c-38.3754943 0-69.40752871 31.03203532-69.4075287 69.4075287L37.75469868 306.77524079c0 38.3754943 31.03203532 69.40752871 69.4075287 69.4075287l325.95481227 0c38.3754943 0 69.40752871-31.03203532 69.40752871-69.40752871l0-325.95481226C502.52456928-57.318180050000024 471.25564824-88.58710112000006 433.11704059-88.58710112000006zM107.16222738 309.85475547c-1.65820021 0-2.84262893-1.42131446-2.84262892-2.84262892l0-325.95481227c0-1.65820021 1.42131446-2.84262893 2.84262892-2.84262895l325.95481227 0c1.65820021 0 2.84262893 1.42131446 2.84262894 2.84262894L435.95966952 306.77524079c0 1.65820021-1.42131446 2.84262893-2.84262893 2.84262895L107.16222738 309.61786973999995zM749.3595364 409.10989078c-18.47708993 0-36.00663594 7.10657327-49.03535374 20.37217588L552.27058029 577.29878421c-27.00497766 27.00497766-27.00497766 71.06572985 0 98.07070659l148.0536033 148.05360332c27.00497766 27.00497766 71.06572985 27.00497766 98.07070657 0l148.05360331-148.05360332c27.00497766-27.00497766 27.00497766-71.06572985 0-98.07070658l-148.05360331-148.05360331C785.36617235 416.21646404 767.83662632 409.10989078 749.3595364 409.10989078zM599.41084714 624.20216534l148.05360331-148.0536033c1.18442872-1.18442872 3.07951468-1.18442872 4.26394339 0l148.05360332 148.0536033c1.18442872 1.18442872 1.18442872 3.07951468 0 4.26394341L751.49150811 776.28282631c-1.18442872 1.18442872-3.07951468 1.18442872-4.26394342 0l-148.0536033-148.05360331C598.22641842 627.28168096 598.22641842 625.38659406 599.41084714 624.20216534L599.41084714 624.20216534zM912.33694256-88.82398684999998L586.38213026-88.82398684999998c-38.3754943 0-69.40752871 31.03203532-69.4075287 69.40752869L516.97460064 306.30146932c0 38.3754943 31.03203532 69.40752871 69.40752871 69.4075287l325.95481227 0c38.3754943 0 69.40752871-31.03203532 69.40752872-69.4075287l0-325.9548123C981.74447218-57.79195156000003 950.47555111-88.82398684999998 912.33694256-88.82398684999998zM586.38213026 309.38098398c-1.65820021 0-2.84262893-1.42131446-2.84262894-2.84262895l0-325.95481226c0-1.65820021 1.42131446-2.84262893 2.84262894-2.84262892l325.9548123 0c1.65820021 0 2.84262893 1.42131446 2.84262892 2.84262892L915.17957148 306.30146932c0 1.65820021-1.42131446 2.84262893-2.84262892 2.84262893L586.38213026 309.14409824999996z"  horiz-adv-x="1024" />

    
    <glyph glyph-name="microblog" unicode="&#58954;" d="M168.80233663 139.24490737999997L42.46354547 139.24490737999997c-19.69035819 0-35.71638302-15.32046987-35.71638299-34.96530887 0-19.64380376 16.02602483-34.96530886 35.71638299-34.96530888l126.33879116 0c19.71311828 0 35.73914312 15.32046987 35.7391431 34.96530888C204.5404455 123.92443750999996 188.51545489 139.24490737999997 168.80233663 139.24490737999997zM168.80233663 418.96530886L42.46354547 418.96530886c-19.69035819 0-35.71638302-15.32046987-35.71638299-34.96530886 0-19.64380376 16.02602483-34.96530886 35.71638299-34.96530886l126.33879116-1e-8c19.71311828 0 35.73914312 15.32046987 35.7391431 34.96530887C204.5404455 403.64483799 188.51545489 418.96530886 168.80233663 418.96530886zM168.80233663 675.37550378L42.46354547 675.37550378c-19.69035819 0-35.71638302-15.32046987-35.71638299-34.96530886s16.02602483-34.96530886 35.71638299-34.96530889l126.33879116 0c19.71311828 0 35.73914312 15.32046987 35.7391431 34.96530889S188.51545489 675.37550378 168.80233663 675.37550378zM919.41641457 838.54487537l-782.19334377 0c-26.1779446 0-61.73397472-25.12582007-61.73397471-51.23548434l0-42.00430374 93.30703414 0c52.35692341 0 94.76469748-41.00493999 94.7646975-93.23875386 0-52.23174439-42.40880828-93.24185754-94.7646975-93.24185754l-93.30703414 0 0-69.9295825 93.30703414 0c52.35692341 0 94.76469748-41.00493999 94.7646975-93.23978906 0-52.23381385-42.40880828-93.23978908-94.7646975-93.2397891l-93.30703414-1e-8 0-93.23978908 93.30703414 0c52.35692341 0 94.76469748-41.00907892 94.7646975-93.24392702 0-52.23071017-42.40880828-93.23565115-94.7646975-93.23565117l-93.30703414 0 0-55.04982529c0-26.14173548 35.56120227-38.1899628 61.73397471-38.18996279l782.19334377 0c36.06605731 0 65.16243325 12.05236521 65.16243326 38.18996279L984.57884683 787.3052531C984.57884683 813.41905631 955.48350611 838.54487537 919.41641457 838.54487537zM681.54927499 488.89489136L541.68907377 488.89489136 541.68907377 139.24490737999997l-46.62041219 0L495.0686626 488.89489136 378.51970214 488.89489136l0 46.62041216 303.02957184 0L681.54927499 488.89489136z"  horiz-adv-x="1024" />

    
    <glyph glyph-name="check" unicode="&#58942;" d="M613.10441382-21.04835436999997H198.3630988A91.59437613 91.59437613 0 0 0 106.78015601 70.61080614000002V697.54162931A91.60961883 91.60961883 0 0 0 198.3630988 789.21984399h626.93082317a91.07990724 91.07990724 0 0 0 64.81154781-26.85523456c17.30137186-17.30137186 26.75615224-40.3076232 26.76758455-64.78487177L915.44778731 282.91464035v-0.1105146a33.79102684 33.79102684 0 0 1 67.57824224-0.10670522L984.42462049 697.43111365v0.11051566A159.0582923 159.0582923 0 0 1 825.29392197 856.67232787H198.3630988A158.91347872 158.91347872 0 0 1 39.32767213 697.54162931v-626.93082317a158.91347872 158.91347872 0 0 1 159.03923814-159.11164438h414.73750355a33.72624141 33.72624141 0 0 1 0 67.45248387zM974.63448379-30.93757444000005l-128.77708086 128.77708086a202.77664754 202.77664754 0 1 1-47.69690935-47.69690935l128.77708086-128.77708086a33.72624141 33.72624141 0 0 1 47.69690935 47.69690935z m-293.84893396 111.08699953a135.06121362 135.06121362 0 1 0 95.50433331 39.55688031 134.18090196 134.18090196 0 0 0-95.50052185-39.55688031zM782.06716994 552.56451957c18.62374509 0 33.722431 15.19395781 33.72624139 33.8177029s-15.0948755 33.83675708-33.72243098 33.84056748L241.94045194 620.3980910299999a33.77959456 33.77959456 0 0 1-33.72624142-33.78340497c0-18.62755551 15.0948755-33.85581123 33.72243102-33.85581228L782.06716994 552.56451957zM444.48463694 350.20706796a33.71862059 33.71862059 0 1 1 0 67.45248386h-202.5479954a33.69194454 33.69194454 0 1 1 0-67.38769947l202.5479954-0.06478439zM241.95569569 215.30210019000003a33.71480913 33.71480913 0 1 1 0-67.4334297l135.03072717-0.01905417a33.69575496 33.69575496 0 1 1 0 67.38769845z"  horiz-adv-x="1024" />

    
    <glyph glyph-name="full-screen" unicode="&#58880;" d="M673.49789197 505.12537375l255.44293412 254.56153849-0.87630115-144.25845893c-0.35153985-11.96379734 9.32215834-22.51761659 21.28595569-22.16607798l15.3059682 0c11.96379734 0.35281317 21.99030869 7.38869225 22.16607801 19.52826013l0.70435175 214.8044876c0 0.17704387 0.35153985 11.43521487 0.35153986 11.4352149 0.17704387 5.97998871-1.23293422 11.43521487-5.10368757 15.30596821-3.87075335 3.87075335-9.14511573 6.33152734-15.30596821 6.15703131l-10.90790571-0.17704385c-0.17576932 0-0.34644412 0-0.52348799-0.17704387L742.99057813 861.02191994c-11.96379734-0.35281317-21.99030869-10.20737512-22.16607799-22.34312059l0-15.30596822c1.76279126-14.25007659 13.0171411-22.51889115 24.98093846-22.16607799l140.38770559-0.35281316-254.73858236-253.68523737c-11.61225875-11.61225875-11.61225875-30.43234469 0-42.04332886 11.61225875-11.78802804 30.43616588-11.78802804 42.04842463 0L673.49789197 505.12537375zM351.55417722 265.16290257L95.93547382 11.476391909999961l0.8801223 143.56047496c0.35281317 11.95870285-9.3259795 22.5125221-21.28977685 22.16607798l-16.1822681 0c-11.96379734-0.35281317-21.99030869-7.38996681-22.16607801-19.52953345l-0.70435175-214.98025816c0-0.17704387-0.35153985-11.43521487-0.35153986-11.43521488-0.17704387-5.98508319 1.23293422-11.43521487 5.09859306-15.3059682 3.87075335-3.87075335 9.15021021-6.33152734 15.30596824-6.15703133l10.90663241 0.17704385c0.17704387 0 0.35281317 0 0.52985577 0.17704386l213.92818769-0.88139562c11.95870285 0.35281317 21.99030869 10.20228065 22.16607801 22.34312061L304.05689548-53.08455483c-1.7615167 14.25007659-13.02096229 22.51889115-24.98603417 22.16607801L138.68188239-30.565663650000033 393.2446942 223.11575251c11.61225875 11.61225875 11.61225875 30.43743919 0 42.04842463C381.8145738 276.95220517999996 363.16643599 276.95220517999996 351.55417722 265.16290257L351.55417722 265.16290257zM987.52815315-57.306846759999985l-0.52858246 214.98025816c-0.35281317 11.96507064-10.20737512 19.17672031-22.1673513 19.52953345l-15.30469366 0c-11.96507064 0.34644412-21.46299953-10.20737512-21.29105017-22.16607798l0.88139563-144.26355344L673.49789197 265.16290257c-11.61225875 11.61225875-30.43616588 11.61225875-42.04842463 0-11.60716301-11.6109842-11.60716301-30.43616588 0-42.04842461L886.01610159-30.565663650000033l-140.38770561-0.35281317c-11.96379734 0.35281317-23.04619906-8.09304525-24.98475964-22.16607801l0-15.3059682c0.35153985-11.96379734 10.20737512-21.99030869 22.166078-22.3431206l213.0480654 0.88139562c0.17576932 0 0.35153985-0.17704387 0.52858245-0.17704386l10.90790574-0.17704386c5.97871416-0.17576932 11.43521487 2.10923537 15.30469365 6.15703133 3.87075335 3.87075335 5.27563568 9.32088501 5.0998664 15.3059682 0 0-0.17704387 11.25944558-0.17704386 11.43521488L987.52815315-57.308120059999965zM138.86401948 800.85394122l140.3877056 0.35281315c11.95870285-0.35281317 23.04237788 8.09304525 24.98093847 22.16607801L304.23266479 838.68007265c-0.35281317 11.96379734-10.20228065 21.99030869-22.16607798 22.34312061l-214.10013583-0.88139563c-0.17704387 0-0.35281317 0.17704387-0.5298558 0.17704386l-10.9053591 0.17704386c-5.98508319 0.17576932-11.43521487-2.10923537-15.30596823-6.15703132-3.87075335-3.87075335-5.28073018-9.32088501-5.09859306-15.30596821 0 0 0.35153985-11.25944558 0.35153986-11.43521487l0.52348797-214.98025819c0.17704387-11.95997618 10.20737512-19.17672031 22.16607799-19.52443894l16.1873626 0c11.96379734-0.35153985 21.46172498 10.20228065 21.28468237 22.16607799l-0.70307845 143.55538046 255.44802863-253.86355453c11.60588971-11.61225875 30.43107138-11.61225875 42.04205555 0 11.61225875 11.61225875 11.61225875 30.43616588 0 42.04842462L138.86401948 800.85394122 138.86401948 800.85394122zM138.86401948 800.85394122"  horiz-adv-x="1024" />

    
    <glyph glyph-name="question" unicode="&#59224;" d="M512-114.66666667000004C234.8-114.66666667000004 8 112.13333333000003 8 389.33333333S234.8 893.33333333 512 893.33333333s504-226.8 504-504-226.8-504-504-504z m0 945C269.45 830.33333333 71 631.88333333 71 389.33333333s198.45-441 441-441 441 198.45 441 441S754.55 830.33333333 512 830.33333333zM630.4 603.73333333c28.8-25.6 41.6-57.6 41.6-99.2 0-35.2-9.6-64-25.6-86.4-6.4-9.6-25.6-25.6-60.8-54.4-12.8-12.8-22.4-22.4-28.8-35.2-6.4-12.8-12.8-28.8-12.8-48v-12.8h-76.8v12.8c0 25.6 3.2 48 12.8 67.2 9.6 19.2 35.2 48 80 86.4l12.8 12.8c12.8 16 19.2 32 19.2 51.2 0 22.4-6.4 41.6-19.2 57.6-12.8 12.8-35.2 22.4-57.6 22.4-32 0-54.4-9.6-70.4-28.8-12.8-16-19.2-41.6-19.2-73.6H352c0 51.2 16 92.8 44.8 121.6 28.8 28.8 70.4 44.8 121.6 44.8 48 0 83.2-12.8 112-38.4zM544 216.53333333c9.6-9.6 16-22.4 16-35.2 0-16-6.4-25.6-16-35.2-9.6-9.6-22.4-12.8-38.4-12.8s-25.6 6.4-35.2 16c-9.6 9.6-16 22.4-16 35.2 0 16 6.4 25.6 16 35.2 9.6 9.6 22.4 12.8 35.2 12.8 16-3.2 28.8-6.4 38.4-16z"  horiz-adv-x="1024" />

    
    <glyph glyph-name="info" unicode="&#58933;" d="M512 670.6062222200001c28.89955555 0 52.224-23.43822222 52.224-52.224 0-28.89955555-23.43822222-52.224-52.224-52.224-28.89955555 0-52.224 23.43822222-52.224 52.224 0 28.89955555 23.32444445 52.224 52.224 52.224z m0-173.39733333c24.12088889 0 43.80444445-19.68355555 43.80444445-43.80444444v-327.33866667c0-24.12088889-19.68355555-43.80444445-43.80444445-43.80444445s-43.80444445 19.56977778-43.80444445 43.80444445V453.40444445c0 24.12088889 19.68355555 43.80444445 43.80444445 43.80444444z m0-622.13688889c281.14488889 0 508.928 227.89688889 508.928 508.928C1020.928 665.14488889 793.03111111 892.928 512 892.928S3.072 665.14488889 3.072 384c0-281.14488889 227.78311111-508.928 508.928-508.928z m0 950.04444445c243.25688889 0 441.11644445-197.85955555 441.11644445-441.11644445 0-243.25688889-197.85955555-441.11644445-441.11644445-441.11644445-243.25688889 0-441.11644445 197.85955555-441.11644445 441.11644445 0 243.25688889 197.85955555 441.11644445 441.11644445 441.11644445z"  horiz-adv-x="1024" />

    
    <glyph glyph-name="synchronize" unicode="&#58943;" d="M924.4925 234.015c20.62500029 0 37.50000029-16.875 37.50000029-37.50000029s-16.875-37.50000029-37.50000029-37.49999942H189.9125l161.51249971-161.02500029a37.5975 37.5975 0 0 0 0-53.02500029 37.5975 37.5975 0 0 0-53.02499942 0L72.95000029 169.73999971a37.2825 37.2825 0 0 0-10.9125 26.6625c0 0.03750029-0.03750029 0.07499971-0.03750029 0.1125 0 1.76249971 0.7875 3.30000029 1.0125 5.02500058 0.45 3.0375 0.675 6.14999971 1.83750029 9.03749942 5.625 13.68749971 19.0125 23.43750029 34.65 23.43750029h824.99249971z m26.55749971 364.25999971a37.37999971 37.37999971 0 0 0 10.9125-26.6625c0-0.03750029 0.03750029-0.07499971 0.03750029-0.1125 0-1.76249971-0.7875-3.30000029-1.05000029-5.02499971-0.41249971-3.07500029-0.63749971-6.14999971-1.83749942-9.03750029-5.58749971-13.68749971-18.97499971-23.42999971-34.61250058-23.42999971H99.5075c-20.62500029 0-37.50000029 16.875-37.50000029 37.50000029s16.875 37.50000029 37.50000029 37.49999942h734.55000029L672.57500029 770.02500029c-14.58749971 14.58-14.58749971 38.46750029 0 53.055 14.58 14.55000029 38.43 14.55000029 53.02499942 0L951.04999971 598.27499971z"  horiz-adv-x="1024" />

    
    <glyph glyph-name="zoom-out" unicode="&#58984;" d="M1012.19476068 884.19476068a27.93945805 27.93945805 0 0 1-39.51969433 0L629.1213486 540.64104296V808.54593639a27.94951908 27.94951908 0 1 1-55.89903813 0v-335.37410685a28.05012928 28.05012928 0 0 1 27.94951907-27.94951907h335.37410685a27.94951908 27.94951908 0 0 1 0 55.89903813H668.64104296l343.55371772 343.55371775a27.93945805 27.93945805 0 0 1 0 39.51969433zM444.15952043 331.29129751000005a27.93945805 27.93945805 0 0 1-10.66468331 2.15305868H98.12073027a27.94951908 27.94951908 0 1 1 0-55.89903813h267.90489343L22.47190598-66.00839969000003a27.93945805 27.93945805 0 1 1 39.51969433-39.51969433l343.55371775 343.55371772v-267.90489343a27.94951908 27.94951908 0 0 1 55.89903813 0V305.49483712000006a28.05012928 28.05012928 0 0 1-17.27477472 25.79646039z"  horiz-adv-x="1024" />

    
    <glyph glyph-name="article" unicode="&#59059;" d="M789.60890094-91.89782156000001H234.39205813c-65.71160719 0-118.98716625 53.24390063-118.98716626 118.95454875V740.91161437c0 65.71064813 53.27555906 118.98620719 118.98716625 118.98620719H690.4630025l218.13114656-198.28987969v-634.55217375c0-65.70968906-53.2746-118.95358969-118.98524812-118.95358968zM690.4630025 764.72075156v-83.27154187c0-21.90386906 17.74796719-39.68349469 39.65183531-39.68349469h96.98928188L690.4630025 764.72075156z m158.6390025-142.76464594l-0.03165844 0.03165844-0.03069937-39.68349469H710.30522938c-43.80677906 0-79.33437094 35.49593344-79.33437188 79.3036725V800.40375844H254.23332594c-43.80677906 0-79.33437094-35.49497437-79.33437188-79.3027125v-674.20401c0-43.80677906 35.52663281-79.33437094 79.33437188-79.33437188h515.56596656c43.80677906 0 79.3027125 35.52663281 79.3027125 79.33437188V621.95610563z m-79.3036725-614.70994687H650.81212531c-18.561495 0-17.18578781 19.80960938 0 19.80960937h118.98620719c10.93658531 0 19.80960938 8.87398313 19.80960938 19.84126782v59.49406312c0 19.12271438 19.84126781 18.21612937 19.84126781 0v-59.49406312c0.00095906-21.90290999-17.74796719-39.65087625-39.65087719-39.65087719z m-138.827475 257.78394281H274.04293531c-10.93658531 0-19.80960938 8.87398313-19.80960937 19.80960938 0 10.96728375 8.87398313 19.84126781 19.80960937 19.84126781h356.92792219c10.96728375 0 19.84126781-8.87398313 19.84126781-19.84126781 0-10.93658531-8.87302406-19.80960938-19.84126781-19.80960938z m0 138.7948575H274.04293531c-10.93658531 0-19.80960938 8.87398313-19.80960937 19.84126688 0 10.93658531 8.87398313 19.81056844 19.80960937 19.81056843h356.92792219c10.96728375 0 19.84126781-8.87494311 19.84126781-19.81056843 0-10.96728375-8.87302406-19.84126781-19.84126781-19.84126688zM531.82591813 542.62269375H274.04293531c-10.93658531 0-19.80960938 8.87398313-19.80960937 19.84126781 0 10.93658531 8.87398313 19.84126781 19.80960937 19.84126781h257.78298282c10.96728375 0 19.84126781-8.90564156 19.84126781-19.84126781 0.00095906-10.96824375-8.87398313-19.84126781-19.84126781-19.84126781z m69.39838781-515.56596656c5.49899156 0 9.93694313-4.4360325 9.93694312-9.90528376 0-5.46733312-4.43795063-9.90528375-9.93694312-9.90528468-5.46829219 0-9.90528375 4.43795063-9.90528469 9.90528468 0 5.46829219 4.43699156 9.90528375 9.90528469 9.90528376z"  horiz-adv-x="1024" />

    
    <glyph glyph-name="tree-map" unicode="&#58950;" d="M844.48130107 203.19371057c-76.04755485 0-138.51929809-57.63967469-146.45769639-131.50129377l-103.65937506-0.92039399c-10.12433409 89.50831719-46.82504513 170.96318684-102.04868556 236.19611208L741.282123 555.93471386c21.62925916-13.00056536 46.82504513-20.70886516 73.97666837-21.05401292 81.33982037-1.03544325 148.06838591 63.96738351 149.21887841 145.3072039 1.03544325 81.33982037-63.96738351 148.06838591-145.30720388 149.21887841-81.33982037 1.03544325-148.06838591-63.96738351-149.21887844-145.30720387-0.34514774-27.6118202 6.90295506-53.38285242 19.78847117-75.7024071L440.4283319 359.20049482c-62.01154625 52.57750766-138.63434735 88.47287394-222.85039901 100.66809451l1.1504925 108.95164065c63.0469895 16.68214138 109.6419361 74.09171757 109.64193612 142.4309726 0 81.33982037-65.92322079 147.26304116-147.26304116 147.26304117s-147.26304116-65.92322079-147.26304116-147.26304117c0-68.91450129 47.28524212-126.7842745 111.25262563-142.77612037l-1.03544327-104.0045228h-0.80534472v-78.23349064l62.01154622-0.57524625c68.33925504-9.66413708 130.69594902-38.08130206 181.6627672-79.84418013L260.9515005 179.72366337999995c-22.43460393 14.61125486-49.24107939 23.12489943-78.00339213 23.58509646-81.33982037 1.03544325-148.06838591-63.96738351-149.21887841-145.3072039-1.03544325-81.33982037 63.96738351-148.06838591 145.30720389-149.21887843 81.33982037-1.03544325 148.06838591 63.96738351 149.21887841 145.3072039 0.34514774 25.88608147-5.98256105 50.16147341-17.37243687 71.4455848l128.04981623 128.04981628c51.88721214-63.50718652 83.06555917-144.73195763 83.06555918-233.08978235h1.15049249l0.23009851-23.81519493 185.80454024 1.61068951c22.43460393-52.57750766 74.66696385-89.50831719 135.52801756-89.50831721 81.33982037 0 147.26304116 65.92322079 147.26304115 147.26304114s-66.15331927 147.14799192-147.49313968 147.14799192zM107.36075052 711.25120258c0 40.61238557 33.01913501 73.63152058 73.63152059 73.63152058s73.63152058-33.01913501 73.63152056-73.63152058-33.01913501-73.63152058-73.63152056-73.63152057-73.63152058 33.01913501-73.63152059 73.63152057z m710.77427211 44.52406012c40.61238557-0.57524625 73.17132359-33.93952902 72.59607733-74.55191459s-33.93952902-73.17132359-74.55191459-72.59607733-73.17132359 33.93952902-72.59607734 74.55191459 33.82447975 73.17132359 74.5519146 72.59607733zM180.07187711-17.700851169999964c-40.61238557 0.57524625-73.17132359 33.93952902-72.59607734 74.55191458s33.93952902 73.17132359 74.5519146 72.59607735 73.17132359-33.93952902 72.5960773-74.55191459-33.93952902-73.05627432-74.55191456-72.59607734z m664.40942396 0c-40.61238557 0-73.63152058 33.01913501-73.63152055 73.6315206s33.01913501 73.63152058 73.63152055 73.63152058 73.63152058-33.01913501 73.6315206-73.63152058-32.90408576-73.63152058-73.6315206-73.6315206z"  horiz-adv-x="1024" />

    
    <glyph glyph-name="category" unicode="&#58900;" d="M883.6736 30.510933329999943c0-32.84586667-26.6272-59.46773333-59.46986667-59.46773333H80.8576l104.07146667 490.60693333c0 32.84373333 26.6272 59.46666667 59.46666666 59.46666667h683.87733334c32.83946667 0 59.46666667-26.624 59.46666666-59.46666667l-104.06613333-431.1392z m0 0M199.7952 565.71946667h669.01013333v58.42346666c0 32.84266667-26.62826667 59.47093333-59.46666666 59.47093334h-356.81066667v53.87733333c0 32.8384-26.6208 59.46453333-59.46453333 59.46453333H95.72586667c-32.8384 0-59.46666667-26.6272-59.46666667-59.46453333V30.49599999999998l104.07253333 475.7376c-0.00106667 32.85866667 26.61973333 59.4848 59.46346667 59.4848z m0 0"  horiz-adv-x="1024" />

    
    <glyph glyph-name="upload" unicode="&#58886;" d="M213.333 469.333c-25.6 0-42.666 17.067-42.666 42.667 0 166.4 132.266 298.667 298.666 298.667 128 0 243.2-85.334 285.867-209.067 4.267-21.333-4.267-46.933-29.867-51.2-21.333-8.533-46.933 4.267-55.466 25.6-25.6 89.6-106.667 149.333-200.534 149.333C349.867 725.333 256 631.467 256 512c0-25.6-17.067-42.667-42.667-42.667zM768 128c-25.6 0-42.667 17.067-42.667 42.667S742.4 213.33299999999997 768 213.33299999999997c93.867 0 170.667 76.8 170.667 170.667S861.867 554.6669999999999 768 554.6669999999999c-12.8 0-29.867 0-42.667-4.267-21.333-4.267-46.933 8.533-51.2 29.867s8.534 46.933 29.867 51.2c21.333 4.266 42.667 8.533 64 8.533 140.8 0 256-115.2 256-256S908.8 128 768 128zM341.333 128h-128c-25.6 0-42.666 17.067-42.666 42.667s17.066 42.666 42.666 42.666h128c25.6 0 42.667-17.066 42.667-42.666S366.933 128 341.333 128zM768 128h-85.333c-25.6 0-42.667 17.067-42.667 42.667s17.067 42.666 42.667 42.666H768c25.6 0 42.667-17.066 42.667-42.666S793.6 128 768 128zM213.333 128C93.867 128 0 221.86699999999996 0 341.33299999999997s93.867 213.334 213.333 213.334C238.933 554.6669999999999 256 537.6 256 512s-17.067-42.667-42.667-42.667c-72.533 0-128-55.466-128-128s55.467-128 128-128c25.6 0 42.667-17.066 42.667-42.666S238.933 128 213.333 128zM512-42.66700000000003c-25.6 0-42.667 17.067-42.667 42.667V426.667c0 25.6 17.067 42.666 42.667 42.666s42.667-17.066 42.667-42.666V0c0-25.6-17.067-42.667-42.667-42.667zM384 256c-12.8 0-21.333 4.267-29.867 12.8-17.066 17.067-17.066 42.667 0 59.733l128 128c17.067 17.067 42.667 17.067 59.734 0s17.066-42.666 0-59.733l-128-128C405.333 260.26700000000005 396.8 256 384 256zM640 256c-12.8 0-21.333 4.267-29.867 12.8l-128 128c-17.066 17.067-17.066 42.667 0 59.733s42.667 17.067 59.734 0l128-128c17.066-17.066 17.066-42.666 0-59.733C661.333 260.26700000000005 652.8 256 640 256z"  horiz-adv-x="1024" />

    
    <glyph glyph-name="zoom-in" unicode="&#59173;" d="M416.85033359 335.47831264L95.72020938 14.34818843000005V210.59437544000002c0 17.84056246-11.89370829 29.73427074-29.73427072 29.73427078s-29.73427074-11.89370829-29.73427077-29.73427078v-267.60843679c0-8.92028122 2.97342709-14.86713538 8.92028123-20.81398953 5.94685416-5.94685416 11.89370829-8.92028122 20.81398954-8.92028123h267.60843678c17.84056246 0 29.73427074 11.89370829 29.73427079 29.73427076s-11.89370829 29.73427074-29.73427079 29.73427073H137.34818844l321.1301242 321.13012421-41.62797905 41.62797905zM978.82805088 855.82805088c-5.94685416 5.94685416-14.86713538 8.92028122-20.81398954 8.92028122h-267.60843678c-17.84056246 0-29.73427074-11.89370829-29.73427078-29.73427076s11.89370829-29.73427074 29.73427078-29.73427072h196.246187L565.52168736 484.1496664l41.62797905-41.62797904L928.27979062 763.6518115599999V567.4056245500001c0-17.84056246 11.89370829-29.73427074 29.73427072-29.73427078s29.73427074 11.89370829 29.73427077 29.73427078V835.01406134c0 8.92028122-2.97342709 14.86713538-8.92028123 20.81398954z"  horiz-adv-x="1024" />

    
    <glyph glyph-name="photo" unicode="&#58891;" d="M704.17066667 433.83466667c-16.49777778 28.55822222-57.68533333 28.55822222-74.18311112 0l-158.37866666-274.20444445c-15.58755555-27.07911111-54.72711111-27.07911111-70.42844444 0l-77.14133334 133.68888889c-16.49777778 28.55822222-57.68533333 28.55822222-74.18311111 0l-112.41244445-200.93155556c-7.73688889-13.76711111 2.27555555-30.83377778 18.09066667-30.83377777h713.15911111c19.56977778 0 31.97155555 21.04888889 22.41422222 38.11555555L704.17066667 433.83466667zM868.80711111 805.888H155.53422222C70.99733333 805.888 2.27555555 737.0524444499999 2.27555555 652.62933333v-539.87555555c0-81.46488889 63.94311111-148.13866667 144.27022223-152.80355556 2.95822222-0.22755555 6.03022222-0.45511111 8.98844444-0.45511111h713.15911111c30.03733333 0 58.02666667 8.76088889 81.69244445 23.77955556 6.25777778 3.98222222 12.288 8.41955555 17.97688889 13.19822222 32.768 28.10311111 53.58933333 69.74577778 53.58933333 116.28088889V652.62933333c0.22755555 84.42311111-68.608 153.25866667-153.14488889 153.25866667z m92.04622222-693.248c0-23.66577778-9.10222222-45.28355555-23.89333333-61.55377778-6.94044445-7.62311111-15.24622222-14.10844445-24.34844445-19.11466667-12.97066667-7.168-27.87555555-11.264-43.69066666-11.264h-713.38666667c-12.51555555 0-24.46222222 2.61688889-35.27111111 7.168-9.55733333 3.98222222-18.31822222 9.55733333-25.94133333 16.384-18.77333333 16.83911111-30.72 41.18755555-30.72 68.38044445V652.62933333c0 50.74488889 41.30133333 91.93244445 91.93244444 91.93244445h713.27288889c50.74488889 0 91.93244445-41.30133333 91.93244444-91.93244445v-539.98933333zM226.75911111 584.93155555m-91.93244444 0a91.93244445 91.93244445 0 1 1 183.86488888 0 91.93244445 91.93244445 0 1 1-183.86488888 0Z"  horiz-adv-x="1024" />

    
    <glyph glyph-name="link" unicode="&#59047;" d="M569.69196088 233.09739677000005a38.30105181 38.30105181 0 0 0 38.46130725-38.46130725 39.95702477 39.95702477 0 0 0-10.68369644-27.77761077L406.23140505-24.37968790000002q-64.10217876-63.03380911-153.84522901-63.03380911t-153.31104422 63.56799391Q35.50713792 39.72249083999998 35.50713792 129.46554112t64.10217874 153.84522901l191.23816663 190.16979696a34.59380914 34.59380914 0 0 0 26.70924115 11.75206612 38.30105181 38.30105181 0 0 0 38.46130726-38.46130724 34.59380914 34.59380914 0 0 0-11.75206611-26.70924115L154.0961686 228.82391816999996q-41.6664162-41.6664162-41.66641617-99.35837705t41.66641617-99.35837708q40.59804656-40.59804656 98.29000744-40.59804653t99.35837705 40.59804653l191.23816665 191.23816662a34.59380914 34.59380914 0 0 0 26.70924114 11.75206611z m355.7670921 261.75056325L734.22088633 303.60979338000004a39.92497368 39.92497368 0 0 0-27.77761077-10.68369643 38.30105181 38.30105181 0 0 0-38.46130726 38.46130724 34.57244175 34.57244175 0 0 0 11.75206611 26.70924114l190.16979699 191.23816665q41.6664162 40.59804656 41.66641617 98.82419224t-41.13223136 99.35837706Q829.30578484 788.64961265 771.61382396 788.64961265t-99.35837705-41.66641617L481.01728026 555.74502983q-10.68369647-10.68369647-26.70924114-10.68369645a38.30105181 38.30105181 0 0 0-38.46130725 38.46130725q0 16.02554467 10.68369644 26.70924115l191.23816664 191.23816663q64.10217876 64.10217876 153.84522901 64.10217876t153.31104422-63.56799391Q988.49286208 738.43623931 988.49286208 648.69318903t-63.0338091-153.84522901zM456.44477842 292.92609695a38.30105181 38.30105181 0 0 0-38.46130727 38.46130724 34.57244175 34.57244175 0 0 0 11.75206611 26.70924114l108.9737039 108.97370391a34.59380914 34.59380914 0 0 0 26.70924115 11.7520661 38.30105181 38.30105181 0 0 0 38.46130726-38.46130726 34.59380914 34.59380914 0 0 0-11.75206613-26.70924114L483.15401955 304.67816304999997a34.57244175 34.57244175 0 0 0-26.70924113-11.7520661z"  horiz-adv-x="1024" />

    
    <glyph glyph-name="books" unicode="&#58882;" d="M252.96727737-53.59829935000005c0-18.74104246-15.33135386-34.06203539-34.06674491-34.06203539H72.50244506c-18.73539103 0-34.06203539 15.32664435-34.06203539 34.06203539V660.34056814c0 18.73539103 15.32664435 34.06109346 34.06203539 34.06109344h146.3933779c18.73444913 0 34.06580298-15.32570243 34.06580299-34.06109344v-713.93886749m-36.68523504 674.05116254c0 18.73068152-15.32476055 34.06203539-34.06109347 34.06203536H109.56255744c-18.73539103 0-34.06674488-15.33135386-34.0667449-34.06203536v-3.95410848c0-18.73539103 15.33135386-34.06203539 34.06674491-34.06203537h72.64708859c18.73539103 0 34.06109346 15.32664435 34.06109345 34.06203537v3.95410848M319.89418949 831.60018318c0 18.73444913 15.32570243 34.06109346 34.06109346 34.06109345h144.72997733c18.73068152 0 34.06580298-15.33135386 34.06580298-34.06203537v-885.16834162c0-18.74481005-15.33512148-34.06109346-34.06580298-34.06109349H353.95528295c-18.73068152 0-34.06109346 15.32099292-34.06109346 34.06109349V831.59829935M501.30375042 794.91306435c0 18.73633293-15.32664435 34.06203539-34.06203538 34.06203538h-77.17952545c-18.73539103 0-34.06203539-15.33135386-34.06203539-34.06203538v-6.23539736c0-18.73539103 15.32664435-34.06109346 34.06203539-34.06109347h77.17952545c18.73539103 0 34.06203539 15.32570243 34.06203538 34.06109347v6.23539736m482.59149743-785.94828781c5.79270296-17.81044236-4.01721598-37.15807028-21.82671642-42.95077325l-139.21231-45.36487045c-17.80950047-5.78705155-37.12416179 4.01721598-42.95454087 21.87098587L558.72592017 621.33448432c-5.77763253 17.81515187 4.02663499 37.16277979 21.84084496 42.95454086l139.24150899 45.36581235c17.81420997 5.79176107 37.12887129-4.01721598 42.91121333-21.86533444l221.1757604-678.82566847M740.15431915 638.49878126c-5.79176107 17.81515187-25.14409852 27.66274692-42.95454088 21.87098586l-69.07821839-22.48322274c-17.81420997-5.78705155-27.62789652-25.10171288-21.83142596-42.94983138l1.22447382-3.71298129c5.79270296-17.81891949 25.13562139-27.66180502 42.95548276-21.87098587l69.07727651 22.47851324c17.80479094 5.79647058 27.62883842 25.11113192 21.83236784 42.94983137l-1.2244738 3.71769081m-10.56720888 32.39769293z"  horiz-adv-x="1024" />

    
    <glyph glyph-name="more" unicode="&#58992;" d="M512 793.6m-102.4 0a102.4 102.4 0 1 1 204.8 0 102.4 102.4 0 1 1-204.8 0ZM512 384m-102.4 0a102.4 102.4 0 1 1 204.8 0 102.4 102.4 0 1 1-204.8 0ZM512-25.600000000000023m-102.4 0a102.4 102.4 0 1 1 204.8 0 102.4 102.4 0 1 1-204.8 0ZM512 691.2c56.32 0 102.4 46.08 102.4 102.4s-46.08 102.4-102.4 102.4-102.4-46.08-102.4-102.4 46.08-102.4 102.4-102.4z m0-204.8c-56.32 0-102.4-46.08-102.4-102.4s46.08-102.4 102.4-102.4 102.4 46.08 102.4 102.4-46.08 102.4-102.4 102.4z m0-409.6c-56.32 0-102.4-46.08-102.4-102.4s46.08-102.4 102.4-102.4 102.4 46.08 102.4 102.4-46.08 102.4-102.4 102.4z"  horiz-adv-x="1024" />

    
    <glyph glyph-name="cancel-full-screen" unicode="&#58883;" d="M967.66682944 886.43540411l-273.76894804-272.88097491 0.95627875 154.64393674c0.40983376 12.84145765-9.97262137 24.11188591-22.81407899 23.77035775h-16.39335018c-12.84145765-0.40983376-23.56544087-7.9234526-23.77035778-20.90152148l-0.75136188-230.25826442c0-0.20491688-0.40983376-12.22670702-0.40983375-12.22670701-0.20491688-6.42072882 1.29780688-12.22670702 5.46445005-16.39335018 4.16664316-4.16664316 9.83601011-6.76225695 16.39335019-6.62564571l11.680262 0.20491686c0.20491688 0 0.34152813 0 0.546445 0.20491689l228.34570692-0.95627873c12.84145765 0.40983376 23.56544087 10.92890012 23.77035775 23.97527463v16.39335017c-1.91255751 15.30046018-13.93434765 24.11188591-26.77580529 23.77035777l-150.47729354 0.40983374 273.01758615 271.92469616a31.91238836 31.91238836 0 0 1 0 45.08171299 31.58452136 31.58452136 0 0 1-45.01340736-0.13661126zM55.92333683-114.7201526l273.9738649 271.92469614-0.95627875-153.89257485c-0.40983376-12.84145765 9.97262137-24.11188591 22.814079-23.77035775h17.34962894c12.84145765 0.40983376 23.56544087 7.9234526 23.77035776 20.90152149l0.75136186 230.39487567c0 0.20491688 0.40983376 12.22670702 0.40983378 12.22670701 0.20491688 6.42072882-1.29780688 12.22670702-5.46445007 16.39335018-4.16664316 4.16664316-9.83601011 6.76225695-16.39335018 6.6256457l-11.680262-0.20491689c-0.20491688 0-0.40983376 0-0.54644502-0.20491685l-229.30198565 0.95627875c-12.84145765-0.40983376-23.56544087-10.92890012-23.77035776-23.97527465v-16.39335018c1.91255751-15.30046018 13.93434765-24.11188591 26.77580531-23.77035775l150.47729353-0.40983375-272.88097491-271.92469615a31.91238836 31.91238836 0 0 1 0-45.08171299c12.22670702-12.4316239 32.24025535-12.4316239 44.67187926 0.20491687z m574.99675762 345.48985507l0.546445-230.39487567c0.40983376-12.84145765 10.92890012-20.55999336 23.77035776-20.90152149h16.39335019c12.84145765-0.34152813 23.01899588 10.92890012 22.814079 23.77035777l-0.95627877 154.64393671 273.97386491-272.67605802a31.91238836 31.91238836 0 0 1 45.08171302 0 31.91238836 31.91238836 0 0 1 0 45.081713l-272.88097491 271.92469614 150.47729354 0.40983375c12.84145765-0.40983376 24.72663653 8.67481446 26.77580529 23.77035776v16.39335019c-0.40983376 12.84145765-10.92890012 23.56544087-23.77035775 23.97527463l-228.34570692-0.95627875c-0.20491688 0-0.40983376 0.20491688-0.546445 0.20491688l-11.680262 0.20491687c-6.42072882 0.20491688-12.22670702-2.25408565-16.39335019-6.62564571-4.16664316-4.16664316-5.66936695-9.97262137-5.46445005-16.39335016l0.20491688-12.4316239zM284.13243248 569.42899499l-150.47729353-0.40983377c-12.84145765 0.40983376-24.72663653-8.67481446-26.77580531-23.77035777v-16.39335017c0.40983376-12.84145765 10.92890012-23.56544087 23.77035776-23.97527465l229.50690254 0.95627877c0.20491688 0 0.40983376-0.20491688 0.54644501-0.20491687l11.68026201-0.20491689c6.42072882-0.20491688 12.22670702 2.25408565 16.39335017 6.62564569 4.16664316 4.16664316 5.66936695 9.97262137 5.46445008 16.39335018l-0.40983377 12.22670703-0.54644501 230.39487567c-0.20491688 12.84145765-10.92890012 20.55999336-23.77035775 20.90152148H352.16483574c-12.84145765 0.40983376-23.01899588-10.92890012-22.81407902-23.77035775l0.75136188-153.89257483-273.76894804 272.26622426a31.91238836 31.91238836 0 0 1-45.08171299 0 31.91238836 31.91238836 0 0 1 0-45.08171299l272.88097491-272.06130739z"  horiz-adv-x="1024" />

    


  </font>
</defs>
</svg>
